<svg viewBox="0 0 100 100" xmlns="http://www.w3.org/2000/svg">
  <!-- Mortarboard -->
  <path d="M50 5 L85 22.5 L50 40 L15 22.5 Z" fill="#667eea" />
  <path d="M30 28 L30 35 Q50 42 70 35 L70 28" fill="#667eea" />
  <circle cx="88" cy="38" r="3" fill="#667eea" />
  <path d="M85 22.5 L88 38" stroke="#667eea" stroke-width="2" fill="none" />
  
  <!-- Student Head -->
  <circle cx="50" cy="52" r="10" fill="#667eea" />
  
  <!-- Body and Briefcase -->
  <path d="M30 80 Q30 65 50 65 Q70 65 70 80" fill="#667eea" />
  <rect x="40" y="70" width="20" height="15" rx="2" fill="#667eea" />
  <path d="M46 70 V67 Q50 64 54 67 V70" stroke="#667eea" stroke-width="2" fill="none" />
  
  <!-- Open Book -->
  <path d="M10 88 Q30 83 50 88 Q70 83 90 88 V94 Q70 89 50 94 Q30 89 10 94 Z" fill="#667eea" />
</svg>

